<?xml version="1.0" encoding="utf-8"?>
<!-- Generator: Adobe Illustrator 24.0.1, SVG Export Plug-In . SVG Version: 6.00 Build 0)  -->
<svg version="1.1" id="f52a33bb-f0f0-440f-a6eb-12ce17e2b83a"
	 xmlns="http://www.w3.org/2000/svg" xmlns:xlink="http://www.w3.org/1999/xlink" x="0px" y="0px" viewBox="0 0 974.4 701.2"
	 style="enable-background:new 0 0 974.4 701.2;" xml:space="preserve">
<style type="text/css">
	.st0{fill:#F2F2F2;}
	.st1{opacity:3.000000e-02;enable-background:new    ;}
	.st2{fill:#3F3D56;}
	.st3{opacity:0.1;enable-background:new    ;}
	.st4{fill:none;stroke:#3F3D56;stroke-width:4;stroke-miterlimit:10;}
	.st5{fill:#311E29;}
	.st6{fill:#513648;}
	.st7{opacity:0.1;fill:#311E29;enable-background:new    ;}
	.st8{fill:#656380;}
	.st9{opacity:0.2;enable-background:new    ;}
	.st10{fill:#915766;}
	.st11{fill:none;stroke:#3F3D56;stroke-miterlimit:10;}
	.st12{fill:#B56D7E;}
	.st13{fill:#9C5E6D;}
	.st14{fill:#FFFFFF;}
	.st15{fill:#FBBEBE;}
	.st16{fill:#E38036;}
</style>
<title>dog walking</title>
<path class="st0" d="M670.3,276.6H542v-27.7c0-3.7-3-6.6-6.6-6.6l0,0h-37.7v-29.6c0-2.3-1.9-4.2-4.2-4.2h-48.5
	c-2.3,0-4.2,1.9-4.2,4.2v29.6h-44.3c-3.7,0-6.6,3-6.6,6.6v0v27.7H267.4c-0.7,0-1.3,0.6-1.3,1.4v368.5c0,0.7,0.6,1.3,1.3,1.3h81.3
	c0.7,0,1.4-0.6,1.4-1.3v-49.6c0-0.7,0.6-1.3,1.4-1.3h34.4c0.7,0,1.3,0.6,1.4,1.3v49.6c0,0.7,0.6,1.3,1.3,1.3h160.7
	c0.7,0,1.3-0.6,1.3-1.3v-49.6c0-0.7,0.6-1.3,1.3-1.3h34.4c0.7,0,1.3,0.6,1.3,1.3v49.6c0,0.7,0.6,1.3,1.3,1.3h81.3
	c0.7,0,1.3-0.6,1.3-1.3V278C671.6,277.2,671,276.6,670.3,276.6z M335.5,578.3c0,0.7-0.6,1.3-1.3,1.3h0h-50.2c-0.7,0-1.3-0.6-1.3-1.3
	c0,0,0,0,0,0v-17.2c0-0.7,0.6-1.3,1.4-1.3h50.3c0.7,0,1.3,0.6,1.3,1.3L335.5,578.3z M335.5,534c0,0.7-0.6,1.3-1.3,1.3c0,0,0,0,0,0
	h-50.2c-0.7,0-1.3-0.6-1.4-1.3c0,0,0,0,0,0v-17.1c0-0.7,0.6-1.3,1.3-1.3c0,0,0,0,0,0h50.3c0.7,0,1.3,0.6,1.3,1.3c0,0,0,0,0,0
	L335.5,534z M335.5,489.7c0,0.7-0.6,1.3-1.3,1.3h-50.2c-0.7,0-1.4-0.6-1.4-1.3v-17.2c0-0.7,0.6-1.3,1.4-1.3h50.3
	c0.7,0,1.3,0.6,1.3,1.3L335.5,489.7z M335.5,445.3c0,0.7-0.6,1.3-1.3,1.3c0,0,0,0,0,0h-50.2c-0.7,0-1.3-0.6-1.4-1.3c0,0,0,0,0,0
	v-17.1c0-0.7,0.6-1.3,1.3-1.3c0,0,0,0,0,0h50.3c0.7,0,1.3,0.6,1.3,1.3c0,0,0,0,0,0L335.5,445.3z M335.5,401c0,0.7-0.6,1.3-1.3,1.4
	h-50.2c-0.7,0-1.4-0.6-1.4-1.4l0,0v-17.2c0-0.7,0.6-1.3,1.3-1.3c0,0,0,0,0,0h50.3c0.7,0,1.3,0.6,1.3,1.3L335.5,401z M335.5,356.7
	c0,0.7-0.6,1.3-1.3,1.3h-50.2c-0.7,0-1.3-0.6-1.3-1.3c0,0,0,0,0,0v-17.2c0-0.7,0.6-1.4,1.4-1.4l0,0h50.3c0.7,0,1.3,0.6,1.3,1.4
	L335.5,356.7z M335.5,312.3c0,0.7-0.6,1.3-1.3,1.3c0,0,0,0,0,0h-50.2c-0.7,0-1.3-0.6-1.4-1.3c0,0,0,0,0,0v-17.1
	c0-0.7,0.6-1.3,1.3-1.4c0,0,0,0,0,0h50.3c0.7,0,1.3,0.6,1.3,1.3c0,0,0,0,0,0L335.5,312.3z M454.6,578.3c0,0.7-0.6,1.3-1.3,1.3
	c0,0,0,0,0,0H403c-0.7,0-1.3-0.6-1.3-1.3v-17.1c0-0.7,0.6-1.3,1.3-1.3h50.2c0.7,0,1.3,0.6,1.3,1.3V578.3z M454.6,534
	c0,0.7-0.6,1.3-1.3,1.3c0,0,0,0,0,0H403c-0.7,0-1.3-0.6-1.3-1.3v-17.1c0-0.7,0.6-1.3,1.3-1.3h50.2c0.7,0,1.3,0.6,1.3,1.3
	c0,0,0,0,0,0V534z M454.6,489.7c0,0.7-0.6,1.3-1.3,1.3H403c-0.7,0-1.3-0.6-1.3-1.3v-17.1c0-0.7,0.6-1.3,1.3-1.3h50.2
	c0.7,0,1.3,0.6,1.3,1.3V489.7z M454.6,445.3c0,0.7-0.6,1.3-1.3,1.3c0,0,0,0,0,0H403c-0.7,0-1.3-0.6-1.3-1.3v-17.1
	c0-0.7,0.6-1.3,1.3-1.3h50.2c0.7,0,1.3,0.6,1.3,1.3c0,0,0,0,0,0V445.3z M454.6,401c0,0.7-0.6,1.4-1.3,1.4H403
	c-0.7,0-1.3-0.6-1.3-1.4v-17.1c0-0.7,0.6-1.3,1.3-1.3h50.2c0.7,0,1.3,0.6,1.3,1.3c0,0,0,0,0,0V401z M454.6,356.7
	c0,0.7-0.6,1.3-1.3,1.3c0,0,0,0,0,0H403c-0.7,0-1.3-0.6-1.3-1.3v-17.1c0-0.7,0.6-1.3,1.3-1.4h50.2c0.7,0,1.3,0.6,1.3,1.4V356.7z
	 M454.6,312.3c0,0.7-0.6,1.3-1.3,1.3c0,0,0,0,0,0H403c-0.7,0-1.3-0.6-1.3-1.3v-17.1c0-0.7,0.6-1.4,1.3-1.4h50.2
	c0.7,0,1.3,0.6,1.3,1.3c0,0,0,0,0,0V312.3z M536,578.3c0,0.7-0.6,1.3-1.3,1.3c0,0,0,0,0,0h-50.2c-0.7,0-1.3-0.6-1.3-1.3v-17.1
	c0-0.7,0.6-1.3,1.3-1.3h50.2c0.7,0,1.3,0.6,1.3,1.3L536,578.3z M536,534c0,0.7-0.6,1.3-1.3,1.3c0,0,0,0,0,0h-50.2
	c-0.7,0-1.3-0.6-1.3-1.3v-17.1c0-0.7,0.6-1.3,1.3-1.3h50.2c0.7,0,1.3,0.6,1.3,1.3c0,0,0,0,0,0L536,534z M536,489.7
	c0,0.7-0.6,1.3-1.3,1.3h-50.2c-0.7,0-1.3-0.6-1.3-1.3v-17.1c0-0.7,0.6-1.3,1.3-1.3h50.2c0.7,0,1.3,0.6,1.3,1.3L536,489.7z
	 M536,445.3c0,0.7-0.6,1.3-1.3,1.3c0,0,0,0,0,0h-50.2c-0.7,0-1.3-0.6-1.3-1.3v-17.1c0-0.7,0.6-1.3,1.3-1.3h50.2
	c0.7,0,1.3,0.6,1.3,1.3c0,0,0,0,0,0L536,445.3z M536,401c0,0.7-0.6,1.4-1.3,1.4h-50.2c-0.7,0-1.3-0.6-1.3-1.4v-17.1
	c0-0.7,0.6-1.3,1.3-1.3h50.2c0.7,0,1.3,0.6,1.3,1.3c0,0,0,0,0,0L536,401z M536,356.7c0,0.7-0.6,1.3-1.3,1.3c0,0,0,0,0,0h-50.2
	c-0.7,0-1.3-0.6-1.3-1.3v-17.1c0-0.7,0.6-1.3,1.3-1.4h50.2c0.7,0,1.3,0.6,1.3,1.4L536,356.7z M536,312.3c0,0.7-0.6,1.3-1.3,1.3
	c0,0,0,0,0,0h-50.2c-0.7,0-1.3-0.6-1.3-1.3v-17.1c0-0.7,0.6-1.4,1.3-1.4h50.2c0.7,0,1.3,0.6,1.3,1.3c0,0,0,0,0,0L536,312.3z
	 M655.1,578.3c0,0.7-0.6,1.3-1.3,1.3h-50.2c-0.7,0-1.3-0.6-1.3-1.3c0,0,0,0,0,0v-17.1c0-0.7,0.6-1.3,1.3-1.3h50.2
	c0.7,0,1.3,0.6,1.3,1.3V578.3z M655.1,534c0,0.7-0.6,1.3-1.3,1.3h-50.2c-0.7,0-1.3-0.6-1.3-1.3v-17.2c0-0.7,0.6-1.3,1.3-1.3
	c0,0,0,0,0,0h50.2c0.7,0,1.3,0.6,1.3,1.3L655.1,534z M655.1,489.6c0,0.7-0.6,1.3-1.3,1.3h-50.2c-0.7,0-1.3-0.6-1.3-1.3v-17.1
	c0-0.7,0.6-1.3,1.3-1.3h50.2c0.7,0,1.3,0.6,1.3,1.3V489.6z M655.1,445.3c0,0.7-0.6,1.3-1.3,1.3h-50.2c-0.7,0-1.3-0.6-1.3-1.3
	c0,0,0,0,0,0v-17.1c0-0.7,0.6-1.3,1.3-1.3c0,0,0,0,0,0h50.2c0.7,0,1.3,0.6,1.3,1.3V445.3z M655.1,401c0,0.7-0.6,1.3-1.3,1.4h-50.2
	c-0.7,0-1.3-0.6-1.3-1.3v-17.2c0-0.7,0.6-1.3,1.3-1.3c0,0,0,0,0,0h50.2c0.7,0,1.3,0.6,1.3,1.3L655.1,401z M655.1,356.6
	c0,0.7-0.6,1.3-1.3,1.3h-50.2c-0.7,0-1.3-0.6-1.3-1.3c0,0,0,0,0,0v-17.1c0-0.7,0.6-1.4,1.3-1.4h50.2c0.7,0,1.3,0.6,1.3,1.4V356.6z
	 M655.1,312.3c0,0.7-0.6,1.3-1.3,1.3h-50.2c-0.7,0-1.3-0.6-1.3-1.3c0,0,0,0,0,0v-17.1c0-0.7,0.6-1.3,1.3-1.4c0,0,0,0,0,0h50.2
	c0.7,0,1.3,0.6,1.3,1.4V312.3z"/>
<path class="st0" d="M256,34.1L240.5,44l9.4-17.1c-2.7-2.1-6-3.3-9.4-3.3h-0.2c-1.1,0-2.2-0.1-3.2-0.2l-5.3,3.4l2.2-4.1
	c-3.7-1.3-7-3.8-9.2-7l-9.4,6l5.9-10.8C215.8,4.1,208.4,0,200.2,0c-9.8,0-18.5,5.8-24.1,14.9c-3.4,5.5-9.5,8.8-16,8.6h-0.5
	c-10.8,0-19.6,12.3-19.6,27.4s8.8,27.4,19.6,27.4c2.4,0,4.7-0.6,6.8-1.7c7.4-3.6,16.1-3.8,23.7-0.5c6.4,2.9,13.7,2.9,20.1,0
	c7.5-3.3,16.1-3.1,23.5,0.5c2.1,1.1,4.4,1.7,6.8,1.7c10.8,0,19.6-12.3,19.6-27.4C260.1,45,258.7,39.3,256,34.1z"/>
<path class="st1" d="M226.7,74.2c-5.6-1.1-11.5-0.4-16.8,1.8c-6.4,2.9-13.7,2.9-20.1,0c-7.4-3.3-16.6-3.2-23.7,0.5
	c-2.1,1.1-4.4,1.7-6.8,1.7c-9.6,0-17.6-9.7-19.2-22.4c1.9-1.4,3.5-3.2,4.8-5.2c5.6-9.1,14.3-15,24.1-15s18.4,5.8,24,14.7
	c3.4,5.5,9.5,8.8,16,8.8h0.2C216.9,59.1,223.5,65.2,226.7,74.2z"/>
<path class="st0" d="M786,205.7l-7.8,4.9l4.7-8.5c-1.3-1.1-3-1.6-4.7-1.7h-0.1c-0.5,0-1.1,0-1.6-0.1l-2.6,1.7l1.1-2
	c-1.9-0.7-3.5-1.9-4.6-3.5l-4.7,3l3-5.4c-2.5-3.3-6.4-5.2-10.5-5.3c-4.9,0-9.2,2.9-12,7.4c-1.7,2.8-4.8,4.4-8,4.3h-0.3
	c-5.4,0-9.8,6.1-9.8,13.6s4.4,13.6,9.8,13.6c1.2,0,2.4-0.3,3.4-0.9c3.7-1.8,8-1.9,11.8-0.2c3.2,1.4,6.9,1.4,10,0
	c3.8-1.6,8-1.5,11.7,0.2c1,0.5,2.2,0.8,3.4,0.8c5.4,0,9.8-6.1,9.8-13.6C788,211.2,787.3,208.3,786,205.7z"/>
<path class="st1" d="M771.4,225.7c-2.8-0.5-5.7-0.2-8.4,0.9c-1.6,0.7-3.3,1.1-5,1.1c-1.7,0-3.4-0.4-5-1.1c-3.8-1.7-8.1-1.6-11.8,0.2
	c-1,0.6-2.2,0.8-3.4,0.9c-4.8,0-8.8-4.8-9.6-11.2c1-0.7,1.8-1.6,2.4-2.6c2.8-4.5,7.2-7.4,12-7.4s9.2,2.9,12,7.4
	c1.7,2.8,4.7,4.4,8,4.4h0.1C766.5,218.2,769.8,221.3,771.4,225.7z"/>
<path class="st2" d="M974.4,665v5c0,10.6-8.6,19.1-19.2,19.1c-0.6,0-1.2,0-1.8-0.1c-39.2-3.7-78.1-10.6-117.4-9.4
	c-72.4,2.2-145.4,31.8-215.5,13.5c-19.8-5.2-39.3-14.1-59.7-12.2c-18.2,1.7-34.5,12-52.2,16.9c-53.8,14.8-108.5-22.5-164.3-21
	c-36.7,1-71.9,18.9-108.6,16.9c-21.3-1.1-41.5-8.9-62.3-13.7c-51.7-11.9-104.9-5.3-158.1-1.1c-7.7,0.6-14.4-5.2-15-12.9
	c0-0.3,0-0.7,0-1v-4.2c0-7.7,6.3-14,14-14l940.9-0.8C965.8,645.9,974.4,654.4,974.4,665z"/>
<path class="st3" d="M974.4,665v5c0,10.6-8.6,19.1-19.2,19.1c-0.6,0-1.2,0-1.8-0.1c-39.2-3.7-78.1-10.6-117.4-9.4
	c-72.4,2.2-145.4,31.8-215.5,13.5c-19.8-5.2-39.3-14.1-59.7-12.2c-18.2,1.7-34.5,12-52.2,16.9c-53.8,14.8-108.5-22.5-164.3-21
	c-36.7,1-71.9,18.9-108.6,16.9c-21.3-1.1-41.5-8.9-62.3-13.7c-51.7-11.9-104.9-5.3-158.1-1.1c-7.7,0.6-14.4-5.2-15-12.9
	c0-0.3,0-0.7,0-1v-4.2c0-7.7,6.3-14,14-14l940.9-0.8C965.8,645.9,974.4,654.4,974.4,665z"/>
<path class="st2" d="M974.4,655.8v5c0,0.7,0,1.4-0.1,2.1c-1.1,10.4-10.4,18-20.8,17c-39.2-3.7-78.1-10.7-117.4-9.4
	c-72.4,2.2-145.4,31.8-215.5,13.5c-19.8-5.2-39.3-14.1-59.7-12.2c-18.2,1.7-34.5,12-52.2,16.9c-53.8,14.7-108.5-22.6-164.3-21.1
	c-36.7,1-71.9,18.9-108.6,16.9c-21.3-1.2-41.5-8.9-62.3-13.7c-51.6-11.9-104.9-5.3-158.1-1.1c-7.2,0.6-13.6-4.4-14.9-11.5
	c-0.1-0.8-0.2-1.6-0.2-2.4v-4.3c0-7.7,6.3-14,14-14l235.8-0.2l481.8-0.4l223.3-0.2C965.8,636.7,974.4,645.3,974.4,655.8z"/>
<path class="st4" d="M889,641.4c3-5.5-0.4-12.3-4.3-17.2s-8.6-10-8.5-16.3c0.2-9,9.7-14.3,17.3-19.1c5.7-3.5,10.9-7.7,15.6-12.5
	c2-1.8,3.6-4,4.8-6.4c1.6-3.5,1.5-7.5,1.4-11.4c-0.3-12.8-1-25.7-1.9-38.5"/>
<path class="st5" d="M927.9,519.3c-0.2-4.8-2.9-9.1-7-11.5l-3.1,6.2l0.1-7.5c-1.5-0.4-3.1-0.6-4.6-0.5c-7.7,0.4-13.7,7-13.3,14.7
	s7,13.7,14.7,13.3C922.3,533.6,928.2,527,927.9,519.3L927.9,519.3z"/>
<path class="st6" d="M902.9,614.3c-3.5,6.9-12,9.6-18.9,6c-6.9-3.5-9.6-12-6-18.9c3.5-6.9,12-9.6,18.9-6c3.1,1.6,5.5,4.3,6.7,7.6
	l-8.8,7.1l9.7-2.2C904.4,610.2,903.9,612.4,902.9,614.3z"/>
<path class="st5" d="M895.9,587.1c-7.7,0.6-14.4-5.2-15-12.9c-0.5-6.8,3.9-13,10.6-14.6l-0.1,5.8l3.2-6.3l0,0
	c7.7-0.4,14.3,5.6,14.7,13.3c0,0,0,0,0,0.1c0.1,1.6-0.1,3.2-0.6,4.8C906.9,582.8,901.8,586.8,895.9,587.1z"/>
<path class="st6" d="M930,564.4c-7.7,0.4-14.3-5.6-14.7-13.3c-0.4-7.7,5.6-14.3,13.3-14.7c2.6-0.1,5.2,0.5,7.5,1.8l-2.5,6.8l5.1-4.9
	c2.7,2.5,4.4,6,4.5,9.7c0.1,1.3-0.1,2.6-0.3,3.9C941.6,559.7,936.3,564.1,930,564.4z"/>
<path class="st6" d="M926,523.1c-3.2,0.4-6.4,1.4-9.6,1.6s-6.8-0.6-8.9-3.1c-1.1-1.4-1.7-3.1-2.6-4.6c-0.9-1.4-2.1-2.5-3.5-3.3
	c-3.3,7-0.4,15.3,6.6,18.7s15.3,0.4,18.7-6.6c0.4-0.9,0.8-1.8,1-2.8C927.1,523,926.5,523,926,523.1z"/>
<path class="st7" d="M930,564.4c-7.7,0.4-14.3-5.6-14.7-13.3c-0.1-2.3,0.3-4.6,1.3-6.7c1.1,0.7,2.1,1.7,2.8,2.8
	c1,1.5,1.6,3.2,2.8,4.6c2.2,2.6,5.9,3.4,9.3,3.3s6.7-1.1,10-1.4c0.5,0,0.9-0.1,1.4-0.1C941.6,559.7,936.3,564.1,930,564.4z"/>
<path class="st6" d="M895.9,587.1c-7.7,0.4-14.3-5.5-14.7-13.3c-0.1-2.2,0.3-4.5,1.2-6.5c1.2,0.8,2.2,1.7,3,2.8
	c1.1,1.5,1.8,3.3,3,4.7c2.4,2.6,6.3,3.6,9.9,3.5s6.8-0.9,10.3-1.2C906.9,582.8,901.8,586.8,895.9,587.1z"/>
<path class="st7" d="M902.9,614.3c-3.2,7.1-11.5,10.2-18.5,7.1s-10.2-11.5-7.1-18.5l0,0c1.2,0.8,2.2,1.7,3.1,2.8
	c1.3,1.6,2.2,3.5,3.8,5c2.9,2.8,7.5,4,11.6,4.1C898.1,614.7,900.5,614.6,902.9,614.3z"/>
<path class="st8" d="M867.8,635c0,0,11.1-0.3,14.4-2.7s17-5.2,17.9-1.4s16.6,19,4.1,19.1s-29-2-32.4-4S867.8,635,867.8,635z"/>
<path class="st9" d="M904.5,648.6c-12.5,0.1-29.1-2-32.4-4c-2.5-1.5-3.5-7.1-3.9-9.7h-0.4c0,0,0.7,8.9,4,11s19.9,4.1,32.4,4
	c3.6,0,4.9-1.3,4.8-3.2C908.5,647.9,907.2,648.6,904.5,648.6z"/>
<path class="st10" d="M611,520c0,16.7,8.6,17.7,22.8,30.2s22.8-13.5,22.8-30.2s-10.2-30.2-22.8-30.2S611,503.3,611,520z"/>
<path class="st11" d="M465.3,369.9c-1.3,3.3,0.5,7.1,3.3,9.3c2.8,2.2,6.3,3.1,9.7,4.2c15,5,28.4,15.4,35.8,29.4s8.4,31.5,1.4,45.7
	c-3.8,7.6-9.6,14-13,21.7c-6.9,15.3-3.4,34.1,6.5,47.6s29.4,16.2,45.7,20.3c0,0,42,33,57,24"/>
<path class="st10" d="M501.7,628.2c0,0-2,17,7,18c4.4,0.4,8.8,0.5,13.2,0.4c8-0.1,14.3-6.6,14.2-14.6c0-2.6-0.8-5.2-2.2-7.4
	l-0.3-0.4C524.7,610.2,501.7,628.2,501.7,628.2z"/>
<path class="st12" d="M506.7,614.2c0,0,22,29,55,3s-7-38-7-38h-42l-25,11L506.7,614.2z"/>
<path class="st10" d="M596.7,590.2c0,0,10,12,19,11c7.2-0.8,21.5,6.1,19.2,18.7c-1.4,7.7-8.8,12.9-16.5,11.5c0,0-0.1,0-0.1,0
	c-3.9-0.7-7.1-3.5-8.5-7.2c0,0-32,2-31-7S596.7,590.2,596.7,590.2z"/>
<path class="st13" d="M514.2,595.7c0,0,13,20,0,33s-27,15-27,15s5,9-14,8s-25-7-19-16s21-19,18-26s-7-22-1-31
	c-2.4-2-4.5-4.3-6.3-6.9c-5.3-8.1,5.3-17.2,12.7-10.9l5.6,4.8c0,0,17-14,54-7c0,0,15-1,18-12c0,0-16-35,26-61c7.6-3.3,15.8-4.7,24-4
	c14,1,29,2,39,24c0,0,8.2,15,17.8,20.8c5.2,3.3,8.8,8.6,9.7,14.7c2.9,17.2-0.8,44.6-59.5,30.5c0,0-4.5,36.5-32.5,51.5c0,0-2,10,0,13
	s12,17-4,16c-8-0.5-14.2-0.5-18.4-0.4c-5.5,0.2-10.1-4.2-10.3-9.7c-0.1-2,0.5-4,1.6-5.7c0-0.1,0.1-0.2,0.2-0.3s3-14-7-25l-2-12
	L514.2,595.7z"/>
<ellipse class="st10" cx="655.2" cy="537.7" rx="13" ry="5"/>
<path class="st14" d="M313.1,555.1c-3,1.7-6.1,3-9.3,4c-5.8,1.6-12,1-17.8,2.3c-2.4,0.5-5,1.7-5.8,4c-0.6,1.7,0,3.6,0.6,5.3
	c6.5,18.9,10.3,39,20.6,56.2c4.3,7.2,9.7,13.7,15.9,19.3c2.3,2.1,5,4.2,8.1,4.5c4.5,0.5,8.6-2.8,9.1-7.3c0.2-1.5-0.1-2.9-0.7-4.3
	c-0.9-2-2.6-3.6-3.8-5.6c-1.4-2.4-1.7-5.2-2.1-8c-1-8.1-2-16.5,0.8-24.2c1.9-5.1,5.3-9.5,8.2-14.2s5.3-10,4.6-15.4
	c-0.4-3.7-2.2-7.1-4.2-10.3s-5.7-11.9-9.5-12.9S316.6,553.3,313.1,555.1z"/>
<path class="st14" d="M418.4,620.5c0.1,1.8-0.2,3.7-0.8,5.4c-1.2,3.2-4.2,5.4-5.7,8.4c-2.2,4.2-1.2,9.3,0.2,13.8
	c0.9,2.8,2.1,5.8,4.5,7.5c1.9,1.4,4.4,1.8,6.8,2.2c20.5,2.8,41.4,1.2,62.1,1.8c3.8,0.1,7.8,0.2,11.1-1.6s5.3-6.5,3.1-9.5
	c-2-2.7-6-2.7-9.4-2.9c-8.8-0.4-17.2-3.9-23.8-9.8c-1.3-1.1-2.4-2.4-3.3-3.8c-0.7-1.3-1.3-2.6-1.8-4c-2.9-7.9-6.4-15.5-10.3-22.9
	c-1.1-2.1-2.4-4.2-4.5-5.3c-1.5-0.7-3.2-1-4.8-1c-5.2-0.3-18.5-2.1-22.5,1.9C415.5,604.3,418.5,615.8,418.4,620.5z"/>
<circle class="st15" cx="450.2" cy="128.7" r="33"/>
<path class="st15" d="M420.4,156c-2,5.3-5.3,10.2-10.1,13l45.6,9.3c-1.7-6.7-1.9-13.6-0.6-20.4c0.4-1.6,0.5-3.3,0.3-5
	c-0.9-3.3-4.6-4.9-7.9-5.7c-8.3-1.9-15.7-2.9-23.4-6.6C421.8,144.7,422.1,151.3,420.4,156z"/>
<path class="st2" d="M409.8,156.6c10-4.5,21.4-4.2,31.1,0.8c5.8,3.1,10.7,7.7,15.5,12.3c4.4,4.2,9.1,9.1,9.4,15.2
	c0.2,3-0.8,5.8-1.2,8.8c-1.7,12.4,4.6,24.5,15.7,30.1c3.6,6,4.4,13.4,4.4,20.4c0.2,26.7-8.2,53.7-2.2,79.7c1.4,6.1,3.6,12,4.8,18.2
	c1.6,8,1.5,16.1,2.3,24.2c0.9,8.7,2.8,17.3,5.8,25.6c-2,3.2-6.1,4.4-9.8,4.1s-7.2-1.9-10.5-3.6c-16.1-8.2-30.8-19.1-47.5-26.1
	c-11-4.6-22.8-7.5-33.5-12.9s-20.6-13.8-23.9-25.3c-1.4-5-1.5-10.2-1.6-15.4c-0.3-21.8-0.6-43.8,4.1-65c4.2-18.7,12.2-36.7,14-55.8
	c0.6-6.2,0.6-12.9,4.1-18.1C395.7,166.6,406.3,164.7,409.8,156.6z"/>
<path class="st2" d="M431.4,129.2c2-2.5,5.7-2.9,8.8-2.1s6,2.4,9.1,3c1.4,0.4,3,0.2,4.3-0.6c1.2-0.9,1.6-2.6,1.8-4.1
	c1.1-6.5,1.4-13.2,0.8-19.8c-0.2-0.9-0.1-1.9,0.2-2.8c0.8-1.9,3.2-2.3,5.1-2.9c6.6-2.2,10.8-8.6,10.3-15.5c0-1.6-0.7-3.1-1.9-4.3
	c-1.3-1.1-3.2-1.2-4.9-1.2c-8.9-0.1-17.7-0.1-26.6,0c-3.3,0-6.7,0.1-9.6,1.8c-2.1,1.2-3.7,3.1-5.6,4.7c-4.9,4-11.6,4.8-17.6,6.8
	c-2.9,0.8-5.6,2.4-7.7,4.6c-2,2.3-3,5.7-1.7,8.4c0.6,1.1,1.4,2.3,2.1,3.3c3.5,5.6,1.2,13,1.7,19.6c0.7,8.3,12.9,21.8,21.3,23.7
	C434.7,155,426.9,134.6,431.4,129.2z"/>
<path class="st2" d="M412.8,493.1c0.8,6.1,1.9,12.2,1.7,18.3c-0.4,8.5-3.5,16.8-4,25.3c-0.4,6.4,0.6,12.8-0.3,19.1
	c-0.6,4-1.9,7.9-2.7,12c-2.6,13.2,0.3,26.8,7.9,37.8c0.6,0.9,1.3,1.7,2.3,2.2c0.9,0.3,1.9,0.5,2.9,0.4c9.6-0.2,19.2-1.1,28.7-2.6
	c1.1,0.1,2.1-0.6,2.2-1.7c0-0.1,0-0.1,0-0.2c1.8-9-2.2-18.1-3.3-27.2c-1.1-9.8,1.2-19.6,3.6-29.1c1.1-4.7,2.4-9.4,4-13.9
	c1.1-3.1,2.5-6.1,3.5-9.2c1.4-4.9,2.2-9.9,2.5-15c0.7-8,1-16,1.1-24.2c0-7.6-0.2-15.3-1.9-22.8c-2.1-9.5-6.5-18.3-10.9-27
	c-2.3,0.4-4.4,1.7-6.4,3c-5.6,3.6-11.4,6.8-17.5,9.7c-4.1,1.9-12,3.2-14.6,7.2s-0.9,11.8-0.7,16.1
	C411.1,478.5,411.8,485.8,412.8,493.1z"/>
<path class="st3" d="M412.8,493.1c0.8,6.1,1.9,12.2,1.7,18.3c-0.4,8.5-3.5,16.8-4,25.3c-0.4,6.4,0.6,12.8-0.3,19.1
	c-0.6,4-1.9,7.9-2.7,12c-2.6,13.2,0.3,26.8,7.9,37.8c0.6,0.9,1.3,1.7,2.3,2.2c0.9,0.3,1.9,0.5,2.9,0.4c9.6-0.2,19.2-1.1,28.7-2.6
	c1.1,0.1,2.1-0.6,2.2-1.7c0-0.1,0-0.1,0-0.2c1.8-9-2.2-18.1-3.3-27.2c-1.1-9.8,1.2-19.6,3.6-29.1c1.1-4.7,2.4-9.4,4-13.9
	c1.1-3.1,2.5-6.1,3.5-9.2c1.4-4.9,2.2-9.9,2.5-15c0.7-8,1-16,1.1-24.2c0-7.6-0.2-15.3-1.9-22.8c-2.1-9.5-6.5-18.3-10.9-27
	c-2.3,0.4-4.4,1.7-6.4,3c-5.6,3.6-11.4,6.8-17.5,9.7c-4.1,1.9-12,3.2-14.6,7.2s-0.9,11.8-0.7,16.1
	C411.1,478.5,411.8,485.8,412.8,493.1z"/>
<path class="st2" d="M368.2,363.7c-4.4,11.8,2.1,24.5,7.7,35.8c13.7,27.8,23.3,57.4,32.8,86.9c0.7,2.2,1.4,4.6,0.6,6.8
	c-0.7,1.6-1.8,2.9-3.2,3.8c-6.6,5-14.9,6.8-22.8,9.4c-7.6,2.5-14.8,5.9-21.6,10.1c-5.7,3.5-11,7.6-16.3,11.6L328.6,541
	c-1.1,0.7-2,1.7-2.8,2.7c-1.6,2.5-1,5.9-0.1,8.8c2.1,7.7,4.9,15.3,8.3,22.5c0.7,1.5,1.5,3.1,3,3.9c2.6,1.4,5.9-0.5,7.9-2.7
	s3.8-5,6.6-5.9s6,0.2,8.9-0.2c4.8-0.7,8-5.1,11.4-8.5c14.1-13.8,37.6-12.8,53.1-25c2.4-1.9,4.5-4,7.1-5.5s5.6-2.4,8.3-3.8
	c8.3-4.2,13.5-12.8,16.2-21.6s3.6-18.1,5.6-27.2c1-4.7,2.4-9.3,2.8-14c0.3-4.4,0.2-8.9-0.3-13.3l-5.6-69.1
	c-0.5-5.6-0.9-11.3-1.8-16.8c-16.6,0.6-33.2,1.3-49.8,1.5C394.2,366.9,380.7,367.8,368.2,363.7z"/>
<path class="st2" d="M362,379.8c2.2,3.6,7.7,3.5,11.5,1.6s6.7-5.3,10.5-7.3c5.1-2.6,11.1-2.5,16.8-2.4c9.1,0.3,18.2,0.5,27,3
	c9,2.6,17.8,7.5,27.2,6.5c1.6-0.2,3.4-0.6,4.3-2c0.5-1,0.8-2.1,0.7-3.2l0.3-8.2c0.2-1.4,0-2.8-0.7-4.1c-0.8-1.1-1.9-1.9-3.1-2.4
	c-13.3-6.4-28.4-7.6-43.2-8.1c-7.5-0.2-15-0.3-22.5-0.3c-6.4,0-14-0.9-20.2,0.8C362.4,356,357.8,373.1,362,379.8z"/>
<path class="st16" d="M445.5,166.3c-17.4-0.1-33.2-11.6-50.6-11.9c-2.1-0.1-4.2,0.2-6.1,1.1c-2.4,1.2-4,3.6-5.9,5.6
	c-5.1,5.6-12.6,8.5-17.9,14c-5,5.1-7.7,12.7-5.8,19.5s9.3,12.1,16.3,10.4c2.8-9,8.5-16.8,16.3-22.2c4-2.6,8.3-4.8,12.8-6.7
	c7.8-3.5,16.6-7.2,24.7-4.5c3,1.1,5.9,2.7,8.4,4.6l13.6,9.1C449.8,179.1,448.4,172.1,445.5,166.3z"/>
<path class="st16" d="M373.5,198.9c-2.3,2.9,1,7.1,0.5,10.7c-0.3,2.4-2.3,4.3-3.2,6.6s-0.4,5-0.7,7.6c-0.3,1.8-0.8,3.6-1.5,5.4
	c-1.5,5.2-2.5,10.6-3.1,16l-3,22.8c-0.5,3.4-0.9,6.9-1,10.3c0,2.6,0.2,5.2-0.5,7.7s-2.2,4.7-3.2,7c-1,2.3-1.5,5.2-0.1,7.4
	c-4.5,3.8-5.9,11.2-2.7,16.2c0.6,0.8,1.1,1.6,1.4,2.6c0.2,1.3,0,2.6-0.6,3.8l-3.1,8.2c-0.8,2.1-1,5.3,1.2,5.8
	c-1.8,1.9-3.2,4.1-4.2,6.6c-0.9,2.5-0.5,5.3,1.1,7.4c0.8,0.7,1.4,1.5,1.9,2.3c0.5,1.2,0.1,2.5-0.2,3.7c-0.9,3.6-0.3,7.5,1.7,10.6
	c2.1,3.2,5.9,4.8,9.6,4.1c6.2-1.4,11.7-3.6,17.9-2.4c13.4,2.5,26.8,4.9,39.8,9.1c14.8,4.7,29.1,11.6,44.6,13.1c1,0.2,2.1,0.1,3-0.5
	c0.8-0.7,1.3-1.8,1.4-2.8l4.8-22.4c1.9-8.3,3.4-16.7,4.4-25.1c0.5-5.4,0.7-10.9,0.9-16.4l1.2-43.5c0.6-6.4-0.3-12.9-2.5-18.9
	l-7.1-22.6c-4-12.9-13.3-24.3-16.6-37.5c-2.1-8.3-3.6-17.2-9.2-23.7c-8-9.2-21.8-10.6-33.9-9.1c-5.5,0.7-11,2-15.7,4.8
	c-5.5,3.3-9.5,8.4-13.4,13.5C380,191.5,376.8,194.8,373.5,198.9z"/>
<path class="st15" d="M401.7,327c1,4.3,3.1,8.3,4.4,12.5c2.1,7.1,2,14.7,4.1,21.8c0.9,3,2.2,5.8,2.8,8.8c1.5,7.1-0.7,14.4-3.4,21.1
	c-2.7,6.7-6,13.3-6.9,20.5c-0.6,5,0.3,10.8,4.2,14c4,3.4,9.9,3.2,15.2,2.7c1.9-0.1,3.8-0.4,5.5-1.1c4-1.9,5.7-6.7,6.7-11
	c3.2-14.6,2.2-29.7,1.3-44.6l-2.4-39c-0.5-7.5-1-15.2-3.3-22.4c-0.8-2.6-2.3-7.9-4.7-9.6s-9.1-1.7-12.1-1.9
	C399.3,298.1,399.5,317.4,401.7,327z"/>
<path class="st2" d="M417,183c-2.8-1.5-6.3-0.8-9.1,0.8s-4.8,4.1-6.8,6.6c-6.1,7.4-12.5,15.9-11.6,25.5c0.3,3.6,1.7,7,2.6,10.5
	c4.1,15.2-0.4,31.3,0.1,47.1c0.3,9.1,2.3,18.1,4.3,27c0.4,1.8,1,3.9,2.8,4.5c1.3,0.5,2.8-0.1,4-0.6c9.9-3.6,20.9-2.3,29.6,3.7
	c3.3-1.7,2-7.2,1.3-10.9c-2.2-10.8,0.8-21.9,4.4-32.3c3.6-10.4,7.9-20.8,8.5-31.7c0.7-12.4-3.5-24.6-7.5-36.3
	c-0.9-2.6-1.9-5.3-3.9-7c-1.8-1.3-3.8-2.2-5.9-2.7C425.4,185.9,421,185.1,417,183z"/>
<path class="st11" d="M554.7,548.2c0,0,30,33,57,24"/>
<path class="st10" d="M591,520c0,16.7-8.5,17.7-22.8,30.2s-22.8-13.5-22.8-30.2s10.2-30.2,22.8-30.2S591,503.3,591,520z"/>
<path class="st2" d="M87.2,535.4c2.2-3.8,3.3-8.1,3.3-12.5c0-11.3-7-20.5-15.7-20.5s-15.7,9.2-15.7,20.5c0,4.4,1.1,8.7,3.3,12.5
	c-4.4,7.8-4.4,17.3,0,25.1c-4.4,7.8-4.4,17.3,0,25.1c-4.4,7.8-4.4,17.3,0,25.1c-2.2,3.8-3.3,8.1-3.3,12.5c0,11.3,7,20.5,15.7,20.5
	s15.7-9.2,15.7-20.5c0-4.4-1.1-8.7-3.3-12.5c4.3-7.8,4.3-17.3,0-25c4.4-7.8,4.4-17.3,0-25.1C91.5,552.7,91.5,543.2,87.2,535.4
	L87.2,535.4z"/>
<ellipse class="st2" cx="74.7" cy="497.8" rx="15.7" ry="20.5"/>
<ellipse class="st2" cx="74.7" cy="472.7" rx="15.7" ry="20.5"/>
<path class="st6" d="M16.1,301.1c-2.1-2.7-4.1-5.6-5.8-8.6l41.2-6.8l-44.6,0.3c-8.6-18.8-9.1-40.3-1.4-59.5l59.8,31l-55.1-40.5
	c20.7-35.9,66.7-48.2,102.6-27.5s48.2,66.7,27.5,102.6c-1.8,3.1-3.8,6.1-6,8.9c3.3,4.2,6.2,8.8,8.6,13.7l-53.5,27.8l57-19.1
	c8.1,24,3.6,50.6-12.1,70.5c25.6,32.6,20,79.8-12.6,105.4c-32.6,25.6-79.8,20-105.4-12.6c-21.4-27.2-21.4-65.6,0-92.9
	C-5.3,366.8-5.3,328.4,16.1,301.1L16.1,301.1z"/>
<path class="st3" d="M150.2,347.5c0,16.8-5.6,33.2-16.1,46.4c25.6,32.6,20,79.8-12.6,105.4C89,525,41.8,519.4,16.1,486.8
	c-21.4-27.2-21.4-65.6,0-92.9C6,381.2,150.2,339.1,150.2,347.5z"/>
</svg>
